<?xml version="1.0" encoding="UTF-8"?>
<svg width="218.44mm" height="218.44mm" version="1.1" viewBox="0 0 218.44 143.67" xmlns="http://www.w3.org/2000/svg"
   xmlns:cc="http://creativecommons.org/ns#" xmlns:dc="http://purl.org/dc/elements/1.1/"
   xmlns:osb="http://www.openswatchbook.org/uri/2009/osb" xmlns:rdf="http://www.w3.org/1999/02/22-rdf-syntax-ns#">
   <title>SeraSome</title>
   <defs>
      <clipPath id="a">
         <path d="m80.475 75.21 40.165-35.273 42.942 42.042z" display="none" fill="#ffe6d5" />
         <path class="powerclip" d="m49.254 41.646h141.33v32.563h-141.33zm31.221 33.564 83.108 6.7689-42.942-42.042z"
            fill="#ffe6d5" />
      </clipPath>
   </defs>
   <g transform="translate(-10.638 -34.263)" display="none">
      <circle cx="120.12" cy="120.12" r="119.06" fill="#87decd"
         style="mix-blend-mode:normal;paint-order:markers stroke fill" />
   </g>
   <g transform="translate(-10.638 -34.263)" style="mix-blend-mode:normal">
      <g fill="#1a8d9c">
         <ellipse cx="119.89" cy="105" rx="75.702" ry="70.146" />
         <path
            d="m44.45 114.56c-4.5052 14.164-2.638 33.337-23.813 34.396 32.055 11.27 63.85 23.642 97.896 26.458 31.458-1.8867 65.782-13.44 100.54-26.458-22.616-2.2126-18.814-21.078-23.812-34.396" />
         <path d="m142.35 148.96" />
      </g>
   </g>
   <g transform="translate(-10.638 -34.263)">
      <g transform="matrix(.91834 0 0 .93506 10.037 8.2571)" fill="#458d95" fill-opacity=".32948">
         <ellipse cx="119.89" cy="107.65" rx="75.702" ry="70.146" />
         <path
            d="m44.45 117.21c-4.5052 14.164-2.638 33.337-23.813 34.396 32.055 11.27 63.85 23.642 97.896 26.458 31.458-1.8867 65.782-13.44 100.54-26.458-22.616-2.2126-18.814-21.078-23.812-34.396" />
         <path d="m142.35 151.61" />
      </g>
   </g>
   <g transform="translate(-10.638 -34.263)">
      <ellipse cx="119.74" cy="107.79" rx="75.702" ry="70.146" fill="#ffe6d5" />
   </g>
   <g transform="translate(-10.638 -34.263)">
      <ellipse cx="119.74" cy="107.79" rx="75.702" ry="70.146" fill="#ffe6d5" />
      <path transform="scale(.26458)"
         d="m421.17 670.31c-32.127-3.2347-69.089-13.538-98.07-27.339-79.26-37.743-134.03-105.67-151.37-187.74-4.346-20.567-5.4292-59.863-2.245-81.446 8.3297-56.462 32.871-104.89 73.982-146 41.918-41.918 96.079-69.66 157.1-80.468 23.871-4.2281 64.662-5.1519 89.23-2.0208 123.39 15.726 218.83 99.416 243.4 213.44 4.3244 20.07 5.4403 62.072 2.2293 83.911-12.509 85.077-68.237 158.71-150.5 198.85-49.575 24.19-107.85 34.444-163.75 28.816zm85.677-31.634c54.37-11.487 99.251-35.317 135.33-71.857 30.506-30.892 52.317-70.938 61.403-112.74 4.5613-20.985 4.5738-64.774 0.0245-85.694-10.32-47.453-31.643-85.145-67.581-119.46-37.054-35.377-82.698-57.882-136.86-67.477-25.124-4.451-67.186-4.486-91.505-0.0762-103.35 18.741-180.86 87.749-203.22 180.94-12.38 51.594-2.9148 112.05 24.853 158.73 16.404 27.576 42.285 55.537 68.973 74.515 26.453 18.811 65.431 35.669 97.652 42.235 24.064 4.9039 32.776 5.5989 63.617 5.0755 25.409-0.43125 32.443-1.055 47.302-4.1943z"
         fill="none" style="paint-order:markers stroke fill" />
      <path transform="scale(.26458)"
         d="m421.17 670.31c-111.72-11.248-207.8-84.768-240.95-184.38-10.002-30.045-11.866-42.147-11.957-77.601-0.0906-35.422 2.1492-50.752 11.499-78.696 5.4565-16.309 17.1-42.335 18.371-41.064 0.43691 0.43692-1.0868 4.5367-3.3861 9.1107-21.132 42.039-28.858 94.998-20.91 143.34 18.347 111.59 115.01 198.61 235.97 212.42 16.457 1.8787 49.278 1.8928 64.706 0.0277 119.02-14.387 212.43-96.177 234.54-205.34 6.4732-31.974 5.0006-74.887-3.6822-107.31-20.511-76.586-80.305-141.67-157.68-171.62-85.531-33.112-181.5-24.434-257.51 23.285-6.7384 4.2305-12.553 7.3909-12.92 7.0232-0.86971-0.8697 20.113-14.449 33.768-21.854 24.568-13.322 58.326-24.753 89.542-30.318 23.83-4.2486 64.588-5.1804 89.23-2.0398 123.39 15.726 218.83 99.416 243.4 213.44 4.3244 20.07 5.4403 62.072 2.2293 83.911-12.509 85.077-68.237 158.71-150.5 198.85-49.575 24.19-107.85 34.444-163.75 28.816z"
         fill="#e9c6af" fill-opacity=".39306" style="paint-order:markers stroke fill" />
   </g>
   <g transform="translate(-10.638 -34.263)" fill="#f6dac6" stroke="#f6dac6" stroke-linecap="square">
      <path
         d="m47.43 108.93c-0.33293-1.5459 0.36566-9.8458 1.1485-13.646 3.4978-16.978 15.131-32.617 31.973-42.984 10.262-6.3163 24.927-11.11 37.052-12.113l3.0371-0.25107-3.6831 3.5127c-2.0257 1.932-17.039 16.374-33.363 32.093-16.324 15.719-31.086 29.908-32.804 31.531l-3.1245 2.9512z"
         stroke-width="4.936" style="paint-order:markers stroke fill" />
      <path
         d="m193.85 108.93c0.33293-1.5459-0.36567-9.8458-1.1485-13.646-3.4979-16.978-15.131-32.617-31.973-42.984-10.262-6.3163-24.927-11.11-37.052-12.113l-3.0371-0.25107 3.6831 3.5127c2.0257 1.932 17.039 16.374 33.363 32.093 16.324 15.719 31.086 29.908 32.804 31.531l3.1246 2.9512z"
         stroke-width="4.936" style="paint-order:markers stroke fill" />
      <path
         d="m50.213 102.99c0-3.345 2.4057-12.103 4.8691-17.727 7.813-17.836 22.769-31.098 42.775-37.929 4.7744-1.6303 12.578-3.4337 13.772-3.1829 0.36621 0.07688-4.3947 4.9051-12.913 13.096-7.4212 7.1356-21.37 20.552-30.998 29.813-14.24 13.698-17.505 16.67-17.505 15.93z"
         stroke-width="7.0156" style="paint-order:markers stroke fill" />
      <path
         d="m159.87 73.888c-19.208-18.46-30.599-29.663-30.243-29.744 1.0951-0.25001 7.6633 1.1788 12.111 2.6346 11.144 3.6475 19.367 8.1667 27.482 15.104 9.8629 8.4315 17.391 20.383 20.452 32.472 0.82316 3.2502 1.5932 9.1487 1.1944 9.1487-0.10037 0-14.049-13.326-30.996-29.614z"
         stroke-width="7.0156" style="paint-order:markers stroke fill" />
   </g>
   <g transform="translate(-10.638 -34.263)">
      <g fill="#1a8d9c" stroke="#1a8d9c" stroke-linejoin="round">
         <path
            d="m44.462 105.76c-0.34161-1.5459 0.37519-9.8458 1.1785-13.646 3.5891-16.978 15.525-32.617 32.807-42.984 10.529-6.3163 25.577-11.11 38.018-12.113l3.1163-0.25107-3.7791 3.5127c-2.0785 1.932-17.483 16.374-34.233 32.093-16.75 15.719-31.897 29.908-33.66 31.531l-3.206 2.9512z"
            stroke-width="5" style="paint-order:markers stroke fill" />
         <path
            d="m194.7 105.76c0.34161-1.5459-0.3752-9.8458-1.1785-13.646-3.5891-16.978-15.525-32.617-32.807-42.984-10.529-6.3163-25.577-11.11-38.018-12.113l-3.1163-0.25107 3.7791 3.5127c2.0785 1.932 17.483 16.374 34.233 32.093 16.75 15.719 31.897 29.908 33.66 31.531l3.206 2.9512z"
            stroke-width="5" style="paint-order:markers stroke fill" />
         <path transform="scale(.26458)"
            d="m178.84 377.26c0-12.642 9.3296-45.745 18.883-67 30.299-67.411 88.302-117.53 165.89-143.35 18.516-6.1616 48.777-12.978 53.409-12.03 1.4202 0.29056-17.043 18.539-50.078 49.495-28.78 26.969-82.876 77.676-120.21 112.68-55.223 51.774-67.886 63.004-67.886 60.207z"
            stroke-width="26.859" style="paint-order:markers stroke fill" />
         <path transform="scale(.26458)"
            d="m604.1 267.26c-74.49-69.771-118.67-112.11-117.29-112.42 4.247-0.94491 29.719 4.4553 46.968 9.9575 43.218 13.786 75.107 30.866 106.58 57.084 38.249 31.867 67.443 77.04 79.316 122.73 3.1923 12.284 6.1786 34.578 4.6319 34.578-0.38922 0-54.482-50.367-120.21-111.93z"
            stroke-width="26.859" style="paint-order:markers stroke fill" />
      </g>
   </g>
   <g transform="translate(-10.638 -34.263)">
      <path transform="translate(0 1.0583)"
         d="m68.792 51.858 16.76-3.7077 22.187 4.8887 19.179-6.3929 33.156 7.8578c5.9544 2.0333 8.5156-3.599 14.237 0.47551 4.8226 3.4342 11.272 12.006 11.272 12.006l-26.277-4.7391-16.969 6.963-18.427-9.0253-25.948 6.3929-10.153-7.145-19.555 5.6408-13.999 0.57534c5.3675-5.3633 8.9352-9.2876 14.538-13.79z"
         clip-path="url(#a)" fill="#fff" fill-opacity=".27457" />
   </g>
   <g transform="translate(-10.638 -34.263)" fill="#502d16" stroke="#502d16" stroke-linecap="round"
      stroke-linejoin="round" stroke-width="5">
      <circle cx="79.375" cy="112.18" r="5.2917" style="paint-order:markers stroke fill" />
      <circle cx="158.92" cy="112.42" r="5.2917" style="paint-order:markers stroke fill" />
   </g>
   <g transform="translate(-10.638 -34.263)">
      <path d="m103.19 132.03c0.0227 12.365 31.745 12.897 31.75 0" fill="none" stroke="#502d16" stroke-width="8" />
   </g>

</svg>